<?xml version="1.0" encoding="utf-8"?>
<!-- Generator: Adobe Illustrator 27.0.0, SVG Export Plug-In . SVG Version: 6.00 Build 0)  -->
<svg version="1.1" id="Capa_1" xmlns="http://www.w3.org/2000/svg" xmlns:xlink="http://www.w3.org/1999/xlink" x="0px" y="0px"
	 viewBox="0 0 437.1 73.7" enable-background="new 0 0 437.1 73.7" xml:space="preserve">
<symbol  id="horizontal_color" viewBox="-236.3 90.9 420.7 64.9">
	<g>
		<path fill="#E6322F" d="M-212.1,155.8l0-25h24.9c2.1,0,3.7,1.4,3.7,3.2l-0.2,13.9c0,0,1,7.8-11.4,7.8L-212.1,155.8z"/>
		<path fill="#BA1818" d="M-214.4,128.9l-0.1-29c0-4.9-4.2-8.9-9.1-8.9h-12.7v38H-214.4z"/>
		<path fill="#ED7072" d="M-212.1,101l24.6,23.9c1.5,1.5,0.5,4-1.6,4.1l-22.9,0V101z"/>
		<linearGradient id="SVGID_1_" gradientUnits="userSpaceOnUse" x1="-181.475" y1="87.6136" x2="-210.6137" y2="113.6474">
			<stop  offset="0.4851" style="stop-color:#E62E2A"/>
			<stop  offset="0.5176" style="stop-color:#DE2E2C"/>
			<stop  offset="0.5706" style="stop-color:#CA2D32"/>
			<stop  offset="0.6376" style="stop-color:#A92B39"/>
			<stop  offset="0.7158" style="stop-color:#7E2740"/>
			<stop  offset="0.8024" style="stop-color:#4A2244"/>
			<stop  offset="0.8684" style="stop-color:#231D44"/>
		</linearGradient>
		<path fill="url(#SVGID_1_)" d="M-178,95.8l-18.1,20.7l-15.9-15.6l9.1-10l22.9-0.1C-177.7,90.9-176.7,93.8-178,95.8z"/>
		<polygon fill="#ED7072" points="-214.4,155.8 -236.3,155.8 -214.4,130.7 		"/>
		
			<linearGradient id="SVGID_00000064330893488998448970000011820919088076674726_" gradientUnits="userSpaceOnUse" x1="-236.3353" y1="143.2572" x2="-214.4352" y2="143.2572">
			<stop  offset="0" style="stop-color:#E02C2C"/>
			<stop  offset="1" style="stop-color:#231D44"/>
		</linearGradient>
		<polygon fill="url(#SVGID_00000064330893488998448970000011820919088076674726_)" points="-214.4,130.7 -236.3,155.8 
			-236.3,130.7 		"/>
	</g>
	<g>
		<g>
			<path fill="#676766" d="M-137.7,107.9l-5.6,7.9c-0.6-0.1-1.3-0.1-2-0.1h-6.6v-7.8h-2.6v24.6h9.2c3.1,0,5.6-0.8,7.4-2.3
				c1.8-1.5,2.7-3.6,2.7-6.2c0-1.9-0.5-3.5-1.5-4.9c-1-1.3-2.4-2.3-4.2-2.9l6-8.4H-137.7z M-139.8,119.5c1.3,1.1,1.9,2.6,1.9,4.5
				c0,2-0.6,3.5-1.9,4.6c-1.3,1.1-3.1,1.6-5.6,1.6h-6.5v-12.3h6.5C-142.9,117.9-141.1,118.5-139.8,119.5z"/>
			<path fill="#676766" d="M-111.8,110.1v-2.3h-17.3v24.6h16.8v-2.3h-14.2v-8.8h12.7v-2.2h-12.7v-9.1H-111.8z"/>
			<path fill="#676766" d="M-88.6,120.2h2.5v-9.4c-1.1-1-2.5-1.8-4.1-2.3c-1.6-0.5-3.2-0.8-4.9-0.8c-2.5,0-4.7,0.5-6.6,1.6
				c-2,1.1-3.5,2.6-4.6,4.5c-1.1,1.9-1.7,4.1-1.7,6.4s0.6,4.5,1.7,6.4c1.1,1.9,2.7,3.4,4.6,4.5c2,1.1,4.2,1.6,6.7,1.6
				c1.9,0,3.6-0.3,5.1-0.9c1.6-0.6,2.9-1.5,4-2.7l-1.6-1.7c-1.9,1.9-4.4,2.9-7.4,2.9c-2,0-3.8-0.4-5.4-1.3c-1.6-0.9-2.9-2.1-3.8-3.7
				c-0.9-1.6-1.4-3.3-1.4-5.2c0-1.9,0.5-3.7,1.4-5.2s2.2-2.8,3.7-3.7c1.6-0.9,3.4-1.3,5.4-1.3c2.5,0,4.7,0.6,6.4,1.9V120.2z"/>
			<path fill="#676766" d="M-78.8,132.5h2.6v-24.6h-2.6V132.5z"/>
			<path fill="#676766" d="M-64.1,109.3c-2,1.1-3.5,2.6-4.6,4.5c-1.1,1.9-1.7,4-1.7,6.4s0.6,4.5,1.7,6.4c1.1,1.9,2.6,3.4,4.6,4.5
				c2,1.1,4.2,1.6,6.6,1.6c2.4,0,4.6-0.5,6.6-1.6c1.9-1.1,3.5-2.6,4.6-4.5c1.1-1.9,1.7-4.1,1.7-6.4s-0.6-4.5-1.7-6.4
				c-1.1-1.9-2.7-3.4-4.6-4.5c-1.9-1.1-4.1-1.6-6.6-1.6C-59.9,107.7-62.1,108.2-64.1,109.3z M-52.2,111.3c1.6,0.9,2.8,2.1,3.7,3.7
				c0.9,1.6,1.3,3.3,1.3,5.2c0,1.9-0.4,3.7-1.3,5.2c-0.9,1.6-2.1,2.8-3.7,3.7c-1.6,0.9-3.3,1.3-5.3,1.3c-1.9,0-3.7-0.4-5.3-1.3
				c-1.6-0.9-2.8-2.1-3.7-3.7c-0.9-1.6-1.3-3.3-1.3-5.2c0-1.9,0.4-3.7,1.3-5.2c0.9-1.6,2.1-2.8,3.7-3.7c1.6-0.9,3.3-1.3,5.3-1.3
				C-55.5,110-53.8,110.4-52.2,111.3z M-54.9,138.9h3.3l-5.7-4.4h-2.5L-54.9,138.9z"/>
			<path fill="#676766" d="M-18.3,132.5v-24.6h-2.1l-15.8,20v-20h-2.6v24.6h2.1l15.8-20v20H-18.3z"/>
		</g>
		<g>
			<path fill="#E52421" d="M-11.2,132.6h10.7c2.6,0,5-0.5,7-1.5c2-1,3.6-2.5,4.7-4.3c1.1-1.9,1.7-4,1.7-6.5c0-2.4-0.6-4.6-1.7-6.5
				c-1.1-1.9-2.7-3.3-4.7-4.3c-2-1-4.4-1.5-7-1.5h-10.7V132.6z M-0.7,111.7c1.8,0,3.4,0.3,4.8,1c1.4,0.7,2.4,1.7,3.2,3
				c0.7,1.3,1.1,2.8,1.1,4.5s-0.4,3.2-1.1,4.5c-0.7,1.3-1.8,2.3-3.2,3c-1.4,0.7-3,1-4.8,1h-6v-16.9H-0.7z"/>
			<path fill="#E52421" d="M17.8,132.6h4.6v-24.7h-4.6V132.6z"/>
			<path fill="#E52421" d="M45.8,120.5h4.3v-9.8c-1.3-1-2.7-1.8-4.4-2.3c-1.7-0.5-3.4-0.8-5.2-0.8c-2.5,0-4.8,0.5-6.8,1.6
				c-2,1.1-3.6,2.6-4.7,4.5s-1.7,4.1-1.7,6.5c0,2.4,0.6,4.6,1.7,6.5c1.1,1.9,2.7,3.4,4.8,4.5c2,1.1,4.3,1.6,6.8,1.6
				c2.1,0,3.9-0.3,5.6-1c1.7-0.7,3.1-1.7,4.2-3l-2.9-2.8c-1.9,1.9-4.1,2.8-6.8,2.8c-1.7,0-3.3-0.4-4.6-1.1c-1.3-0.7-2.4-1.8-3.2-3.1
				c-0.8-1.3-1.1-2.8-1.1-4.5c0-1.6,0.4-3.1,1.1-4.4c0.8-1.3,1.8-2.4,3.2-3.1c1.3-0.8,2.9-1.1,4.6-1.1c1.9,0,3.6,0.4,5.1,1.3V120.5z
				"/>
			<path fill="#E52421" d="M56.1,132.6h4.6v-24.7h-4.6V132.6z"/>
			<path fill="#E52421" d="M72.3,128.7h-8.1v3.9H85v-3.9h-8.1v-20.8h-4.6V128.7z"/>
			<path fill="#E52421" d="M103.1,113.6H90.9l-2.4-5.7h-4.7l11.1,24.7h4.5l11.1-24.7h-4.8L103.1,113.6z M101.6,117.2L97,128
				l-4.6-10.8H101.6z"/>
			<path fill="#E52421" d="M113.5,132.6h4.6v-20.8h12.9v-3.9h-17.4V132.6z"/>
			<path fill="#808081" d="M132.6,108.2c-0.4,0.3-0.5,0.8-0.5,1.3c0,0.5,0.2,1,0.5,1.3c0.3,0.3,0.8,0.5,1.3,0.5
				c0.5,0,0.9-0.2,1.3-0.5c0.3-0.3,0.5-0.8,0.5-1.3c0-0.5-0.2-1-0.5-1.3c-0.4-0.3-0.8-0.5-1.3-0.5
				C133.4,107.7,133,107.9,132.6,108.2z"/>
			<path fill="#808081" d="M140.3,108.5c-1,0.5-1.7,1.2-2.3,2.1s-0.8,2-0.8,3.1c0,1.2,0.3,2.2,0.8,3.1s1.3,1.6,2.2,2.1
				c1,0.5,2,0.8,3.3,0.8c1.2,0,2.2-0.2,3-0.7s1.5-1.1,2-2l-2.1-1.2c-0.3,0.5-0.8,0.9-1.3,1.2c-0.5,0.3-1.1,0.4-1.7,0.4
				c-1,0-1.9-0.3-2.5-1s-1-1.6-1-2.7c0-1.1,0.3-2,1-2.7c0.7-0.7,1.5-1,2.6-1c0.6,0,1.2,0.1,1.7,0.4c0.5,0.3,0.9,0.7,1.3,1.2l2.1-1.2
				c-0.5-0.9-1.1-1.6-2-2c-0.9-0.5-1.9-0.7-3-0.7C142.3,107.7,141.2,108,140.3,108.5z"/>
			<path fill="#808081" d="M152.8,108.5c-1,0.5-1.7,1.2-2.2,2.1s-0.8,2-0.8,3.1c0,1.2,0.3,2.2,0.8,3.1s1.3,1.6,2.2,2.1
				c0.9,0.5,2,0.8,3.2,0.8c1.2,0,2.3-0.3,3.2-0.8c0.9-0.5,1.7-1.2,2.2-2.1s0.8-1.9,0.8-3.1c0-1.2-0.3-2.2-0.8-3.1s-1.3-1.6-2.2-2.1
				c-1-0.5-2-0.8-3.2-0.8C154.8,107.7,153.7,108,152.8,108.5z M158.5,111.1c0.7,0.7,1,1.6,1,2.7s-0.3,2-1,2.7c-0.7,0.7-1.5,1-2.5,1
				c-1,0-1.8-0.3-2.5-1c-0.7-0.7-1-1.6-1-2.7s0.3-2,1-2.7c0.6-0.7,1.5-1,2.5-1C157,110.1,157.8,110.4,158.5,111.1z"/>
			<path fill="#808081" d="M183.1,118.5c0.9-0.9,1.3-2.1,1.3-3.9v-6.7h-2.7v6.4c0,1-0.2,1.8-0.7,2.3c-0.5,0.5-1.1,0.8-1.9,0.8
				c-0.9,0-1.7-0.3-2.2-0.9c-0.6-0.6-0.8-1.5-0.8-2.6v-6h-2.7v6.4c0,1-0.2,1.8-0.7,2.3c-0.5,0.5-1.1,0.8-1.9,0.8
				c-0.9,0-1.7-0.3-2.2-0.9s-0.8-1.5-0.8-2.6v-6h-2.7v11.7h2.6v-1.5c0.4,0.5,1,0.9,1.6,1.2s1.4,0.4,2.2,0.4c0.9,0,1.7-0.2,2.3-0.5
				c0.7-0.3,1.2-0.8,1.6-1.5c0.5,0.6,1.1,1.1,1.9,1.4c0.8,0.3,1.6,0.5,2.5,0.5C181.1,119.7,182.3,119.3,183.1,118.5z"/>
		</g>
	</g>
</symbol>
<use xlink:href="#horizontal_color"  width="420.7" height="64.9" id="XMLID_00000095336224696573196300000014918751685662021268_" x="-236.3" y="90.9" transform="matrix(1 0 0 -1 244.5269 160.1796)" overflow="visible"/>
</svg>
